<?xml version="1.0" encoding="UTF-8"?>
<svg xmlns="http://www.w3.org/2000/svg" id="Layer_1" data-name="Layer 1" viewBox="0 0 24 24">
  <path d="M24,10.959c0-1.428-.673-2.599-2-3.483v-.477c0-1.922-1.742-3.265-3.522-3.472-.175-1.822-1.361-3.528-3.478-3.528-1.309,0-2.357,.499-3,1.399-.643-.9-1.691-1.399-3-1.399-2.119,0-3.341,1.741-3.524,3.528-1.757,.209-3.476,1.551-3.476,3.472v.477c-1.327,.884-2,2.055-2,3.483,0,.985,.313,1.926,.949,2.778-.581,.753-.896,1.668-.896,2.623,0,1.703,1.031,3.26,2.589,3.943,1.039,2.419,2.832,3.696,5.196,3.696,1.505,0,3.305-.884,4.162-2.285,.856,1.399,2.657,2.285,4.162,2.285,2.364,0,4.157-1.277,5.196-3.696,1.558-.683,2.589-2.241,2.589-3.943,0-.953-.314-1.866-.893-2.618,.619-.821,.945-1.78,.945-2.784Zm-1.979,3.112c.598,.623,.927,1.436,.927,2.289,0,1.384-.843,2.598-2.147,3.091-.131,.05-.235,.151-.287,.281-.873,2.167-2.337,3.267-4.351,3.267-1.427,0-3.258-1.033-3.605-2.514-.061-.264-.29-.448-.557-.448-.232,0-.503,.22-.556,.446-.349,1.482-2.18,2.516-3.606,2.516-2.014,0-3.478-1.099-4.351-3.267-.052-.13-.156-.231-.287-.281-1.305-.494-2.147-1.707-2.147-3.091,0-.853,.329-1.666,.927-2.289,.201-.242,.11-.657-.153-.825-.54-.669-.826-1.46-.826-2.287,0-1.154,.575-2.064,1.759-2.781,.149-.091,.241-.253,.241-.428v-.751c0-1.473,1.556-2.5,2.951-2.5,.276,0,.5-.224,.5-.5,0-1.491,.876-3,2.549-3,.9,0,2.068,.288,2.525,1.658,.137,.408,.812,.408,.949,0,.457-1.371,1.625-1.658,2.525-1.658,1.718,0,2.5,1.555,2.5,3,0,.276,.224,.5,.5,.5,1.419,0,3,1.027,3,2.5v.751c0,.175,.092,.337,.241,.428,1.184,.717,1.759,1.626,1.759,2.781,0,.827-.286,1.618-.777,2.235-.289,.191-.488,.591-.202,.877Zm-6.427-5.072h-2.388l.693-1.974c.393-.943-.381-2.055-1.4-2.026h-1.895c-.642,0-1.212,.401-1.417,.998l-2.126,6.155c-.294,.877,.435,1.873,1.361,1.847h2.383l-.749,2.247c-.466,1.44,1.624,2.436,2.45,1.153l4.258-6.231c.629-.887-.085-2.205-1.171-2.169Zm.341,1.611l-4.252,6.224c-.313,.339-.715,.148-.671-.292l.963-2.884c.113-.31-.144-.667-.475-.658h-3.077c-.265,.014-.489-.3-.41-.539l2.12-6.137c.067-.197,.253-.324,.472-.324h1.895c.346-.007,.601,.351,.462,.681l-.933,2.653c-.12,.313,.137,.675,.472,.666h3.094c.38,.064,.491,.265,.341,.611Z"/>
</svg>
